<svg xmlns="http://www.w3.org/2000/svg" width="48" height="48" viewBox="0 0 48 48" fill="none">
  <defs>
    <linearGradient id="mangoGrad" x1="0" y1="0" x2="48" y2="48" gradientUnits="userSpaceOnUse">
      <stop offset="0%" stop-color="#fb923c"/>
      <stop offset="55%" stop-color="#f59e0b"/>
      <stop offset="100%" stop-color="#ea580c"/>
    </linearGradient>
    <radialGradient id="mangoGloss" cx="0.3" cy="0.25" r="0.6">
      <stop offset="0%" stop-color="#ffffff" stop-opacity="0.45"/>
      <stop offset="100%" stop-color="#ffffff" stop-opacity="0"/>
    </radialGradient>
  </defs>
  <rect x="2" y="2" width="44" height="44" rx="12" fill="url(#mangoGrad)"/>
  <rect x="2" y="2" width="44" height="44" rx="12" fill="url(#mangoGloss)"/>
  <path d="M14 18.5C14 16.567 15.567 15 17.5 15h13c1.933 0 3.5 1.567 3.5 3.5v8c0 1.933-1.567 3.5-3.5 3.5H22l-5 4.2c-.5.42-1.27.066-1.27-.59V30H17.5C15.567 30 14 28.433 14 26.5v-8z" fill="#ffffff" fill-opacity="0.95"/>
  <circle cx="20" cy="22.5" r="1.5" fill="#ea580c"/>
  <circle cx="24" cy="22.5" r="1.5" fill="#ea580c"/>
  <circle cx="28" cy="22.5" r="1.5" fill="#ea580c"/>
</svg>
